<?xml version="1.0" encoding="UTF-8"?>
<svg width="30px" height="30px" viewBox="0 0 30 30" version="1.1" xmlns="http://www.w3.org/2000/svg" xmlns:xlink="http://www.w3.org/1999/xlink">
    <!-- Generator: Sketch 47 (45396) - http://www.bohemiancoding.com/sketch -->
    <title>Group</title>
    <desc>Created with Sketch.</desc>
    <defs></defs>
    <g id="Page-1" stroke="none" stroke-width="1" fill="none" fill-rule="evenodd">
        <g id="Desktop" transform="translate(-1340.000000, -924.000000)" fill-rule="nonzero" fill="#FFFFFF">
            <g id="Group" transform="translate(1340.000000, 924.000000)">
                <path d="M15,30 C6.71428571,30 0,23.2857143 0,15 C0,6.71428571 6.71428571,0 15,0 C23.2857143,0 30,6.71428571 30,15 C30,23.2857143 23.2857143,30 15,30 Z M15,1.42857143 C7.5,1.42857143 1.42857143,7.5 1.42857143,15 C1.42857143,22.5 7.5,28.5714286 15,28.5714286 C22.5,28.5714286 28.5714286,22.5 28.5714286,15 C28.5714286,7.5 22.5,1.42857143 15,1.42857143 Z" id="Shape"></path>
                <path d="M14.2857143,15.6785714 L14.2857143,23.0714286 C14.2857143,23.4642857 14.6071429,23.7857143 15,23.7857143 C15.3928571,23.7857143 15.7142857,23.4642857 15.7142857,23.0714286 L15.7142857,15.6785714 L23.1071429,15.6785714 C23.5,15.6785714 23.8214286,15.3571429 23.8214286,14.9642857 C23.8214286,14.5714286 23.5,14.25 23.1071429,14.25 L15.7142857,14.25 L15.7142857,6.85714286 C15.7142857,6.46428571 15.3928571,6.14285714 15,6.14285714 C14.6071429,6.14285714 14.2857143,6.46428571 14.2857143,6.85714286 L14.2857143,14.25 L6.89285714,14.25 C6.5,14.25 6.17857143,14.5714286 6.17857143,14.9642857 C6.17857143,15.3571429 6.5,15.6785714 6.89285714,15.6785714 L14.2857143,15.6785714 Z" id="Combined-Shape" transform="translate(15.000000, 14.964286) rotate(45.000000) translate(-15.000000, -14.964286) "></path>
            </g>
        </g>
    </g>
</svg>